<svg height="492pt" viewBox="-58 0 492 492" width="492pt" xmlns="http://www.w3.org/2000/svg" xmlns:xlink="http://www.w3.org/1999/xlink"><linearGradient id="lg1"><stop offset=".322" stop-color="#a163f5"/><stop offset=".466" stop-color="#b074ee"/><stop offset=".752" stop-color="#d8a1dd"/><stop offset=".898" stop-color="#efbad3"/></linearGradient><linearGradient id="linear0" gradientUnits="userSpaceOnUse" x1="208.736" x2="208.736" xlink:href="#lg1" y1="466" y2="29.285"/><linearGradient id="linear1" gradientUnits="userSpaceOnUse" x1="131.241" x2="131.241" xlink:href="#lg1" y1="466" y2="29.285"/><linearGradient id="linear2" gradientUnits="userSpaceOnUse" x1="187.076" x2="187.076" xlink:href="#lg1" y1="466" y2="29.285"/><linearGradient id="linear4" gradientUnits="userSpaceOnUse" x1="81.703" x2="81.703" xlink:href="#lg1" y1="466" y2="29.285"/><linearGradient id="linear5" gradientUnits="userSpaceOnUse" x1="151.744" x2="151.744" xlink:href="#lg1" y1="466" y2="29.285"/><linearGradient id="linear6" gradientUnits="userSpaceOnUse" x1="55.611" x2="55.611" xlink:href="#lg1" y1="466" y2="29.285"/><linearGradient id="linear7" gradientUnits="userSpaceOnUse" x1="87.853" x2="87.853" xlink:href="#lg1" y1="466" y2="29.285"/><linearGradient id="linear8" gradientUnits="userSpaceOnUse" x1="148.789" x2="148.789" xlink:href="#lg1" y1="466" y2="29.285"/><linearGradient id="linear9" gradientUnits="userSpaceOnUse" x1="187.7" x2="187.7" xlink:href="#lg1" y1="466" y2="29.285"/><path d="m202.933594 74.621094h11.601562c3.3125 0 6-2.6875 6-6s-2.6875-6-6-6h-11.601562c-3.3125 0-6 2.6875-6 6s2.6875 6 6 6zm0 0" fill="url(#linear0)"/><path d="m131.242188 395.554688c-11.960938 0-21.652344 9.695312-21.652344 21.65625 0 11.957031 9.699218 21.652343 21.65625 21.652343 11.960937 0 21.652344-9.695312 21.652344-21.65625-.011719-11.953125-9.703126-21.640625-21.65625-21.652343zm0 31.308593c-5.332032 0-9.65625-4.324219-9.65625-9.65625s4.324218-9.652343 9.65625-9.652343c5.332031 0 9.652343 4.320312 9.652343 9.652343-.003906 5.332031-4.324219 9.648438-9.652343 9.65625zm0 0" fill="url(#linear1)"/><path d="m190.058594 281.792969h-5.957032c-3.316406 0-6 2.683593-6 6 0 3.3125 2.683594 6 6 6h5.960938c3.3125 0 6-2.6875 6-6 0-3.316407-2.6875-6-6-6zm0 0" fill="url(#linear2)"/><path d="m207.945312 114.800781h-153.410156c-8.832031.007813-15.988281 7.167969-16 16v105.246094c.011719 8.832031 7.167969 15.988281 16 16h153.410156c8.832032-.011719 15.992188-7.167969 16-16v-105.246094c-.011718-8.832031-7.167968-15.992187-16-16zm4 121.238281c0 2.210938-1.789062 4-4 4h-153.410156c-2.207031 0-4-1.789062-4-4v-105.238281c0-2.210937 1.792969-4 4-4h153.410156c2.210938 0 4 1.789063 4 4zm0 0" fill="url(#linear1)"/><path d="m44.535156 293.792969h74.335938c3.3125 0 6-2.6875 6-6 0-3.316407-2.6875-6-6-6h-74.335938c-3.3125 0-6 2.683593-6 6 0 3.3125 2.6875 6 6 6zm0 0" fill="url(#linear4)"/><path d="m163.230469 293.792969c3.316406 0 6-2.6875 6-6 0-3.316407-2.683594-6-6-6h-22.972657c-3.316406 0-6 2.683593-6 6 0 3.3125 2.683594 6 6 6zm0 0" fill="url(#linear5)"/><path d="m66.6875 317.277344h-22.152344c-3.3125 0-6 2.6875-6 6s2.6875 6 6 6h22.152344c3.3125 0 6-2.6875 6-6s-2.6875-6-6-6zm0 0" fill="url(#linear6)"/><path d="m88.070312 317.277344h-.4375c-3.3125 0-6 2.6875-6 6s2.6875 6 6 6h.4375c3.316407 0 6-2.6875 6-6s-2.683593-6-6-6zm0 0" fill="url(#linear7)"/><path d="m188 317.277344h-78.417969c-3.316406 0-6 2.6875-6 6s2.683594 6 6 6h78.417969c3.3125 0 6-2.6875 6-6s-2.6875-6-6-6zm0 0" fill="url(#linear8)"/><path d="m340.625 386.800781c5.835938.238281 11.636719-1.058593 16.816406-3.769531 11.050782-5.757812 17.976563-17.191406 17.957032-29.652344 0-9.992187-5.878907-19.234375-12.929688-25.492187 2.132812-3.34375 3.265625-7.230469 3.265625-11.199219.003906-1.683594-.199219-3.363281-.597656-5-1.597657-6.4375-6.726563-11.402344-13.214844-12.789062l1.101563-15.984376c1.300781-18.863281-5.285157-37.421874-18.1875-51.242187-12.902344-13.824219-30.960938-21.671875-49.871094-21.671875-7.652344-.007812-15.253906 1.265625-22.484375 3.773438v-168.75c-.027344-24.855469-20.167969-44.9960942-45.023438-45.023438h-172.433593c-24.855469.0273438-44.9960942 20.167969-45.023438 45.023438v370.734374c.0273438 24.851563 20.167969 44.992188 45.023438 45.023438h153.738281v25.21875c0 3.3125 2.683593 6 6 6h160.707031c3.3125 0 6-2.6875 6-6v-36.769531c0-.167969-.007812-.335938-.019531-.5-1.125-12.984375-8.894531-24.457031-20.527344-30.320313-.210937-.105468-.429687-.199218-.648437-.277344l-29.058594-10.488281c1.027344-.414062 2.046875-.863281 3.027344-1.375 7.808593-4.082031 13.695312-11.078125 16.382812-19.46875zm12.855469-72.257812c.652343 2.675781.042969 5.507812-1.65625 7.675781-1.703125 2.167969-4.304688 3.4375-7.058594 3.441406h-1.015625c-3.238281 0-5.894531 2.566406-6 5.804688-.941406 28.472656-24.296875 51.066406-52.785156 51.066406-28.492188 0-51.847656-22.59375-52.789063-51.066406-.105469-3.238282-2.761719-5.804688-6-5.804688h-1.054687c-2.757813-.003906-5.359375-1.273437-7.058594-3.441406-1.699219-2.171875-2.3125-5-1.65625-7.675781.613281-2.414063 2.832031-4.066407 5.320312-3.964844.371094 0 .742188.03125 1.109376.101563.367187.066406.742187.101562 1.113281.097656h.535156c.230469 0 .460937-.015625.6875-.046875.078125-.011719.152344-.023438.230469-.035157.1875-.03125.375-.074218.5625-.121093.058594-.015625.125-.03125.183594-.050781.242187-.070313.476562-.15625.707031-.257813.039062-.015625.074219-.039063.113281-.054687.1875-.089844.375-.191407.554688-.300782.066406-.039062.128906-.082031.199218-.125.164063-.109375.328125-.226562.480469-.351562.046875-.035156.09375-.070313.136719-.105469.167968-.144531.324218-.296875.476562-.457031.019532-.019532.035156-.042969.054688-.0625.050781-.054688.09375-.113282.140625-.167969.128906-.15625.25-.3125.363281-.476563.035156-.054687.074219-.109374.113281-.167968.144531-.222656.273438-.457032.382813-.699219l.011718-.019531c3.683594-7.953125 11.65625-13.039063 20.421876-13.035156 17.246093.046874 33.558593-7.828126 44.253906-21.359376l4.15625-5.0625c.671875 8.015626 2.964844 17.28125 8.910156 25.238282 7.976562 10.683594 20.597656 16.613281 37.523438 17.628906h.191406s.109375.007812.167968.007812h.425782c.375 0 .746094-.03125 1.117187-.097656 2.855469-.632812 5.695313 1.113282 6.429688 3.941406zm-25.117188 134.6875v30.769531h-86.5v-30.769531c0-.167969-.007812-.332031-.019531-.5-.71875-8.28125-4.164062-16.089844-9.800781-22.203125l31.140625-11.238282 15.765625 21.246094v18.589844c0 3.3125 2.683593 6 6 6 3.3125 0 6-2.6875 6-6v-18.585938l15.832031-21.339843 31.402344 11.332031c-5.636719 6.113281-9.082032 13.917969-9.800782 22.199219-.011718.167969-.019531.332031-.019531.5zm-110.304687-76.820313c-6.714844-3.507812-11.085938-10.285156-11.503906-17.847656-.421876-7.558594 3.167968-14.78125 9.449218-19.011719 1.453125.714844 2.988282 1.253907 4.566406 1.609375 2.675782 23.050782 17.460938 42.914063 38.769532 52.101563v8.75c-1.824219-.140625-3.617188-.523438-5.335938-1.144531-7.59375-2.714844-13.027344-9.453126-14.074218-17.445313-.214844-1.671875-1.125-3.175781-2.503907-4.140625-1.378906-.96875-3.101562-1.3125-4.746093-.949219-2.96875.652344-6.039063.679688-9.015626.074219-1.953124-.398438-3.839843-1.074219-5.605468-2zm80.492187 33.742188-13.605469 18.335937-13.605468-18.335937v-13.074219c8.96875 1.929687 18.242187 1.933594 27.210937.011719zm27.511719-166.292969c10.695312 11.355469 16.132812 26.671875 14.992188 42.230469l-1.101563 15.988281c-10.1875-1.59375-17.804687-5.65625-22.675781-12.144531-10.335938-13.769532-5.789063-34.507813-5.742188-34.699219.628906-2.714844-.695312-5.503906-3.195312-6.738281-2.5-1.230469-5.519532-.578125-7.289063 1.578125l-15.792969 19.242187-.0625.078125c-8.425781 10.679688-21.285156 16.894531-34.886718 16.859375-7.5625.007813-14.914063 2.492188-20.925782 7.078125l-.5-7.238281c-1.640624-23.746094 11.851563-45.949219 33.679688-55.433594s47.261719-4.195312 63.503906 13.203125zm-281.039062-227.859375h172.433593c18.230469.019531 33.003907 14.792969 33.023438 33.023438v17.601562h-14.871094c-3.316406 0-6 2.683594-6 6 0 3.3125 2.683594 6 6 6h14.871094v144.699219c-5.691407 3.355469-10.875 7.511719-15.378907 12.347656-12.976562 13.777344-19.574218 32.367187-18.191406 51.242187l1.109375 16.046876c-6.5 1.339843-11.652343 6.289062-13.261719 12.726562-1.296874 5.296875-.472656 10.894531 2.292969 15.597656-14.160156 11.347656-16.683593 31.917969-5.6875 46.351563h-189.363281v-299.015625h170.382812c3.3125 0 6-2.6875 6-6s-2.6875-6-6-6h-170.382812v-17.601563c.023438-18.226562 14.796875-33 33.023438-33.019531zm153.757812 436.730469v.050781h-153.757812c-18.230469-.023438-33.003907-14.796875-33.023438-33.023438v-30.121093h207.089844c.714844.199219 1.4375.375 2.167968.523437 2.65625.542969 5.367188.761719 8.074219.652344 3 9.5625 10.167969 17.246094 19.5 20.902344l-28.878906 10.417968c-.21875.082032-.4375.171876-.644531.277344-11.636719 5.867188-19.402344 17.339844-20.527344 30.320313zm11.980469.761719c.664062-6.90625 4.109375-13.246094 9.542969-17.5625 5.441406 4.3125 8.894531 10.652343 9.558593 17.5625v30.507812h-19.097656zm148.707031 30.507812h-19.105469v-30.507812c.667969-6.910157 4.117188-13.25 9.558594-17.5625 5.4375 4.316406 8.882813 10.65625 9.546875 17.5625zm-40.789062-84.359375c-2.515626 1.335937-5.285157 2.128906-8.128907 2.332031v-8.699218c21.332031-9.175782 36.132813-29.058594 38.808594-52.125 1.351563-.308594 2.667969-.75 3.925781-1.320313 5.378906 4.3125 10.113282 11.074219 10.113282 17.546875.011718 10.179688-7.144532 18.964844-17.117188 21.011719-2.972656.601562-6.039062.578125-9-.074219-1.644531-.367188-3.367188-.023438-4.746094.945312s-2.289062 2.472657-2.503906 4.144532c-.910156 6.9375-5.144531 13-11.351562 16.238281zm0 0" fill="url(#linear9)"/><path d="m174.617188 136.078125c-1.640626-1.117187-3.730469-1.347656-5.578126-.621094l-54.214843 21.375c-2.292969.902344-3.800781 3.117188-3.800781 5.582031v37.117188c-2.214844-.769531-4.542969-1.167969-6.890626-1.167969-10.417968 0-18.890624 7.5-18.890624 16.722657 0 9.222656 8.472656 16.726562 18.890624 16.726562 10.167969 0 18.460938-7.152344 18.855469-16.070312.023438-.214844.035157-.4375.035157-.65625v-27.386719l42.21875-16.640625v13.339844c-2.214844-.773438-4.546876-1.167969-6.894532-1.167969-10.414062 0-18.890625 7.5-18.890625 16.722656s8.476563 16.722656 18.890625 16.722656c10.167969 0 18.460938-7.148437 18.855469-16.066406.023437-.214844.039063-.4375.039063-.65625v-58.914063c0-1.984374-.984376-3.84375-2.625-4.960937zm-70.484376 83.734375c-3.671874 0-6.890624-2.207031-6.890624-4.726562 0-2.515626 3.21875-4.722657 6.890624-4.722657 3.671876 0 6.890626 2.207031 6.890626 4.722657 0 2.515624-3.222657 4.726562-6.890626 4.726562zm18.890626-45.011719v-8.300781l42.21875-16.644531v8.308593zm35.324218 29.875c-3.667968 0-6.890625-2.207031-6.890625-4.722656s3.222657-4.722656 6.890625-4.722656c3.671875 0 6.894532 2.207031 6.894532 4.722656s-3.222657 4.726563-6.894532 4.726563zm0 0" fill="url(#linear1)"/></svg>