<svg width="17" height="5" viewBox="0 0 17 5" fill="none" xmlns="http://www.w3.org/2000/svg">
<path fill-rule="evenodd" clip-rule="evenodd" d="M2.67773 0.765137C1.57773 0.765137 0.677734 1.66514 0.677734 2.76514C0.677734 3.86514 1.57773 4.76514 2.67773 4.76514C3.77773 4.76514 4.67773 3.86514 4.67773 2.76514C4.67773 1.66514 3.77773 0.765137 2.67773 0.765137ZM14.6777 0.765137C13.5777 0.765137 12.6777 1.66514 12.6777 2.76514C12.6777 3.86514 13.5777 4.76514 14.6777 4.76514C15.7777 4.76514 16.6777 3.86514 16.6777 2.76514C16.6777 1.66514 15.7777 0.765137 14.6777 0.765137ZM8.67773 0.765137C7.57773 0.765137 6.67773 1.66514 6.67773 2.76514C6.67773 3.86514 7.57773 4.76514 8.67773 4.76514C9.77773 4.76514 10.6777 3.86514 10.6777 2.76514C10.6777 1.66514 9.77773 0.765137 8.67773 0.765137Z" fill="#5D6C76"/>
</svg>
