<svg width="14" height="12" viewBox="0 0 14 12" fill="none" xmlns="http://www.w3.org/2000/svg">
<path fill-rule="evenodd" clip-rule="evenodd" d="M12.2471 12C11.4664 11.9991 10.7803 11.4096 10.5644 10.5541L4.06702 8.46197C3.34821 9.36392 2.18445 9.59494 1.24065 9.02302C0.296857 8.4511 -0.186485 7.22197 0.0667887 6.03791C0.320062 4.85385 1.24541 4.01657 2.31414 4.00444C2.91427 4.00359 3.49169 4.26602 3.92679 4.73737L7.89414 1.62576C8.05141 0.681892 8.77529 -0.000873401 9.6178 8.38595e-07C10.5859 8.38595e-07 11.3707 0.894934 11.3707 1.99889C11.3707 3.10285 10.5859 3.99778 9.6178 3.99778C9.29511 3.99778 9.03351 3.69947 9.03351 3.33148C9.03351 2.9635 9.29511 2.66519 9.6178 2.66519C9.92734 2.66063 10.18 2.38157 10.194 2.02891C10.2079 1.67626 9.9782 1.37243 9.67027 1.33617C9.36235 1.29992 9.08307 1.54382 9.03351 1.89228C8.97956 2.23432 8.80405 2.53573 8.54855 2.72515L4.13129 6.18323C3.99178 6.29207 3.81778 6.32668 3.6542 6.27813C3.49062 6.22957 3.3535 6.10262 3.27822 5.93004C2.99715 5.43371 2.46304 5.20769 1.96608 5.37477C1.46911 5.54186 1.12796 6.06214 1.12796 6.65297C1.12796 7.2438 1.46911 7.76409 1.96608 7.93117C2.46304 8.09825 2.99715 7.87223 3.27822 7.3759C3.40761 7.10118 3.68678 6.96553 3.95016 7.04942L10.8507 9.24153C11.2479 9.36919 11.5566 9.72629 11.6628 10.181C11.7466 10.5074 12.0325 10.7095 12.3261 10.6499C12.6197 10.5902 12.8268 10.2879 12.8066 9.9486C12.7863 9.60928 12.5451 9.34184 12.2471 9.32815C11.9244 9.32815 11.6628 9.02984 11.6628 8.66185C11.6628 8.29387 11.9244 7.99556 12.2471 7.99556C13.2152 7.99556 14 8.89049 14 9.99445C14 11.0984 13.2152 11.9933 12.2471 11.9933V12Z" fill="#0F1E36"/>
</svg>
